<svg width="147" height="58" viewBox="0 0 147 58" fill="none" xmlns="http://www.w3.org/2000/svg">
<path d="M80.7006 24.776L79.3566 25.32V8.296H83.6126V29H79.3566L62.6206 12.648L63.9646 12.104V29H59.7086V8.296H63.9646L80.7006 24.776ZM95.7524 29.352C94.1737 29.352 92.7337 29.0107 91.4324 28.328C90.1524 27.624 89.1284 26.6533 88.3604 25.416C87.6137 24.1573 87.2404 22.7067 87.2404 21.064C87.2404 19.3787 87.6244 17.9173 88.3924 16.68C89.1604 15.4427 90.195 14.4827 91.4964 13.8C92.819 13.096 94.3124 12.744 95.9764 12.744C97.811 12.744 99.283 13.1173 100.392 13.864C101.523 14.5893 102.344 15.5813 102.856 16.84C103.368 18.0987 103.624 19.5067 103.624 21.064C103.624 22.0027 103.475 22.9627 103.176 23.944C102.878 24.904 102.419 25.8 101.8 26.632C101.182 27.4427 100.371 28.104 99.3684 28.616C98.3657 29.1067 97.1604 29.352 95.7524 29.352ZM97.0964 26.152C98.355 26.152 99.443 25.9387 100.36 25.512C101.278 25.0853 101.982 24.488 102.472 23.72C102.963 22.952 103.208 22.0667 103.208 21.064C103.208 19.976 102.952 19.0587 102.44 18.312C101.95 17.544 101.246 16.968 100.328 16.584C99.4324 16.1787 98.355 15.976 97.0964 15.976C95.3257 15.976 93.9497 16.4453 92.9684 17.384C91.987 18.3013 91.4964 19.528 91.4964 21.064C91.4964 22.088 91.731 22.984 92.2004 23.752C92.6697 24.4987 93.3204 25.0853 94.1524 25.512C95.0057 25.9387 95.987 26.152 97.0964 26.152ZM103.208 13.096H107.368V29H103.496C103.496 29 103.464 28.7973 103.4 28.392C103.358 27.9653 103.315 27.432 103.272 26.792C103.23 26.152 103.208 25.5227 103.208 24.904V13.096ZM111.133 13.096H115.293V29H111.133V13.096ZM121.405 16.52C120.211 16.52 119.176 16.7547 118.301 17.224C117.427 17.672 116.723 18.2267 116.189 18.888C115.656 19.5493 115.283 20.1893 115.069 20.808L115.037 19.048C115.059 18.792 115.144 18.4187 115.293 17.928C115.443 17.416 115.667 16.872 115.965 16.296C116.264 15.6987 116.659 15.1333 117.149 14.6C117.64 14.0453 118.237 13.5973 118.941 13.256C119.645 12.9147 120.467 12.744 121.405 12.744V16.52ZM131.721 29.352C130.142 29.352 128.702 29.0107 127.401 28.328C126.121 27.624 125.097 26.6533 124.329 25.416C123.582 24.1573 123.209 22.7067 123.209 21.064C123.209 19.3787 123.593 17.9173 124.361 16.68C125.129 15.4427 126.164 14.4827 127.465 13.8C128.788 13.096 130.281 12.744 131.945 12.744C133.78 12.744 135.252 13.1173 136.361 13.864C137.492 14.5893 138.313 15.5813 138.825 16.84C139.337 18.0987 139.593 19.5067 139.593 21.064C139.593 22.0027 139.444 22.9627 139.145 23.944C138.846 24.904 138.388 25.8 137.769 26.632C137.15 27.4427 136.34 28.104 135.337 28.616C134.334 29.1067 133.129 29.352 131.721 29.352ZM133.065 26.152C134.324 26.152 135.412 25.9387 136.329 25.512C137.246 25.0853 137.95 24.488 138.441 23.72C138.932 22.952 139.177 22.0667 139.177 21.064C139.177 19.976 138.921 19.0587 138.409 18.312C137.918 17.544 137.214 16.968 136.297 16.584C135.401 16.1787 134.324 15.976 133.065 15.976C131.294 15.976 129.918 16.4453 128.937 17.384C127.956 18.3013 127.465 19.528 127.465 21.064C127.465 22.088 127.7 22.984 128.169 23.752C128.638 24.4987 129.289 25.0853 130.121 25.512C130.974 25.9387 131.956 26.152 133.065 26.152ZM139.177 13.096H143.337V29H139.465C139.465 29 139.433 28.7973 139.369 28.392C139.326 27.9653 139.284 27.432 139.241 26.792C139.198 26.152 139.177 25.5227 139.177 24.904V13.096Z" fill="#231F20"/>
<path d="M58.7901 34.3636H60.0174L64.2389 44.5H64.3412L68.5628 34.3636H69.7901V46H68.7901V36.608H68.6992L64.773 46H63.8071L59.881 36.608H59.7901V46H58.7901V34.3636ZM72.685 46V37.2727H73.702V46H72.685ZM73.202 35.7727C72.9937 35.7727 72.8157 35.7027 72.6679 35.5625C72.5202 35.4186 72.4463 35.2462 72.4463 35.0455C72.4463 34.8447 72.5202 34.6742 72.6679 34.5341C72.8157 34.3902 72.9937 34.3182 73.202 34.3182C73.4103 34.3182 73.5884 34.3902 73.7361 34.5341C73.8838 34.6742 73.9577 34.8447 73.9577 35.0455C73.9577 35.2462 73.8838 35.4186 73.7361 35.5625C73.5884 35.7027 73.4103 35.7727 73.202 35.7727ZM77.3881 40.5455V46H76.3767V37.2727H77.3597V38.642H77.4506C77.6551 38.1951 77.9733 37.8371 78.4051 37.5682C78.8407 37.2955 79.3786 37.1591 80.0188 37.1591C80.6059 37.1591 81.121 37.2822 81.5642 37.5284C82.0112 37.7708 82.3578 38.1288 82.604 38.6023C82.854 39.0758 82.979 39.6572 82.979 40.3466V46H81.9676V40.4091C81.9676 39.6932 81.7669 39.1269 81.3654 38.7102C80.9676 38.2936 80.4335 38.0852 79.7631 38.0852C79.3048 38.0852 78.8976 38.1837 78.5415 38.3807C78.1854 38.5777 77.9032 38.8617 77.6949 39.233C77.4904 39.6004 77.3881 40.0379 77.3881 40.5455ZM88.7844 46.1818C88.0685 46.1818 87.4416 45.9924 86.9037 45.6136C86.3658 45.2348 85.9454 44.7064 85.6424 44.0284C85.3431 43.3504 85.1935 42.5606 85.1935 41.6591C85.1935 40.7614 85.3431 39.9754 85.6424 39.3011C85.9454 38.6231 86.3677 38.0966 86.9094 37.7216C87.4511 37.3428 88.0818 37.1534 88.8014 37.1534C89.3318 37.1534 89.773 37.2481 90.1253 37.4375C90.4776 37.6231 90.7598 37.8542 90.9719 38.1307C91.184 38.4072 91.3488 38.6761 91.4662 38.9375H91.5571V34.3636H92.5742V46H91.5855V44.3807H91.4662C91.3488 44.6458 91.1821 44.9186 90.9662 45.1989C90.7503 45.4754 90.4643 45.7083 90.1083 45.8977C89.756 46.0871 89.3147 46.1818 88.7844 46.1818ZM88.9037 45.2557C89.4681 45.2557 89.9492 45.1023 90.3469 44.7955C90.7446 44.4848 91.0477 44.0587 91.256 43.517C91.4681 42.9716 91.5742 42.3466 91.5742 41.642C91.5742 40.9451 91.47 40.3295 91.2617 39.7955C91.0533 39.2576 90.7503 38.8371 90.3526 38.5341C89.9549 38.2273 89.4719 38.0739 88.9037 38.0739C88.3204 38.0739 87.828 38.233 87.4264 38.5511C87.0287 38.8655 86.7257 39.2917 86.5174 39.8295C86.3128 40.3674 86.2105 40.9716 86.2105 41.642C86.2105 42.3201 86.3147 42.9318 86.523 43.4773C86.7314 44.0227 87.0344 44.4564 87.4321 44.7784C87.8336 45.0966 88.3242 45.2557 88.9037 45.2557ZM103.574 46H100.165V34.3636H103.779C104.889 34.3636 105.837 34.5947 106.625 35.0568C107.417 35.5189 108.023 36.1818 108.443 37.0455C108.864 37.9091 109.074 38.9451 109.074 40.1534C109.074 41.3731 108.858 42.4205 108.426 43.2955C107.998 44.1667 107.373 44.8352 106.551 45.3011C105.733 45.767 104.741 46 103.574 46ZM101.228 45.0455H103.512C104.512 45.0455 105.349 44.8485 106.023 44.4545C106.697 44.0606 107.203 43.4981 107.54 42.767C107.877 42.036 108.046 41.1648 108.046 40.1534C108.042 39.1496 107.875 38.286 107.546 37.5625C107.22 36.839 106.735 36.2841 106.091 35.8977C105.451 35.5114 104.659 35.3182 103.716 35.3182H101.228V45.0455ZM111.451 46V37.2727H112.468V46H111.451ZM111.968 35.7727C111.759 35.7727 111.581 35.7027 111.434 35.5625C111.286 35.4186 111.212 35.2462 111.212 35.0455C111.212 34.8447 111.286 34.6742 111.434 34.5341C111.581 34.3902 111.759 34.3182 111.968 34.3182C112.176 34.3182 112.354 34.3902 112.502 34.5341C112.649 34.6742 112.723 34.8447 112.723 35.0455C112.723 35.2462 112.649 35.4186 112.502 35.5625C112.354 35.7027 112.176 35.7727 111.968 35.7727ZM118.472 49.4545C117.877 49.4545 117.356 49.3769 116.909 49.2216C116.462 49.0701 116.086 48.8617 115.779 48.5966C115.472 48.3314 115.233 48.0341 115.063 47.7045L115.892 47.1591C116.017 47.3788 116.184 47.5947 116.392 47.8068C116.604 48.0189 116.879 48.1951 117.216 48.3352C117.557 48.4754 117.976 48.5455 118.472 48.5455C119.245 48.5455 119.868 48.3523 120.341 47.9659C120.818 47.5795 121.057 46.9792 121.057 46.1648V44.1989H120.966C120.849 44.464 120.68 44.7292 120.461 44.9943C120.241 45.2557 119.953 45.4735 119.597 45.6477C119.245 45.822 118.807 45.9091 118.284 45.9091C117.587 45.9091 116.968 45.7367 116.426 45.392C115.889 45.0473 115.464 44.5549 115.154 43.9148C114.847 43.2708 114.693 42.5038 114.693 41.6136C114.693 40.7311 114.843 39.9545 115.142 39.2841C115.445 38.6136 115.868 38.0909 116.409 37.7159C116.951 37.3409 117.582 37.1534 118.301 37.1534C118.836 37.1534 119.279 37.2481 119.631 37.4375C119.983 37.6231 120.265 37.8542 120.478 38.1307C120.693 38.4072 120.862 38.6761 120.983 38.9375H121.086V37.2727H122.074V46.2273C122.074 46.9659 121.917 47.5739 121.603 48.0511C121.288 48.5284 120.86 48.8807 120.318 49.108C119.777 49.339 119.161 49.4545 118.472 49.4545ZM118.404 44.983C118.964 44.983 119.443 44.8485 119.841 44.5795C120.239 44.3068 120.544 43.9167 120.756 43.4091C120.968 42.9015 121.074 42.2973 121.074 41.5966C121.074 40.9148 120.97 40.3106 120.762 39.7841C120.553 39.2538 120.25 38.8371 119.853 38.5341C119.459 38.2273 118.976 38.0739 118.404 38.0739C117.82 38.0739 117.328 38.2311 116.926 38.5455C116.525 38.8598 116.222 39.2841 116.017 39.8182C115.813 40.3485 115.711 40.9413 115.711 41.5966C115.711 42.2633 115.815 42.8523 116.023 43.3636C116.231 43.8712 116.536 44.2689 116.938 44.5568C117.339 44.8409 117.828 44.983 118.404 44.983ZM124.763 46V37.2727H125.78V46H124.763ZM125.28 35.7727C125.072 35.7727 124.894 35.7027 124.746 35.5625C124.598 35.4186 124.524 35.2462 124.524 35.0455C124.524 34.8447 124.598 34.6742 124.746 34.5341C124.894 34.3902 125.072 34.3182 125.28 34.3182C125.488 34.3182 125.667 34.3902 125.814 34.5341C125.962 34.6742 126.036 34.8447 126.036 35.0455C126.036 35.2462 125.962 35.4186 125.814 35.5625C125.667 35.7027 125.488 35.7727 125.28 35.7727ZM131.892 37.2727V38.1534H127.728V37.2727H131.892ZM129.029 35.1818H130.046V43.7216C130.046 44.0852 130.108 44.3712 130.233 44.5795C130.358 44.7841 130.521 44.9299 130.722 45.017C130.923 45.1004 131.137 45.142 131.364 45.142C131.497 45.142 131.61 45.1345 131.705 45.1193C131.8 45.1004 131.883 45.0814 131.955 45.0625L132.171 45.9773C132.072 46.0152 131.951 46.0492 131.807 46.0795C131.663 46.1136 131.485 46.1307 131.273 46.1307C130.902 46.1307 130.544 46.0492 130.199 45.8864C129.858 45.7235 129.578 45.4811 129.358 45.1591C129.139 44.8371 129.029 44.4375 129.029 43.9602V35.1818ZM136.627 46.1989C136.1 46.1989 135.619 46.0966 135.184 45.892C134.748 45.6837 134.401 45.3845 134.144 44.9943C133.886 44.6004 133.757 44.1231 133.757 43.5625C133.757 43.1307 133.839 42.767 134.002 42.4716C134.165 42.1761 134.396 41.9337 134.695 41.7443C134.994 41.5549 135.348 41.4053 135.757 41.2955C136.167 41.1856 136.617 41.1004 137.11 41.0398C137.598 40.9792 138.011 40.9261 138.348 40.8807C138.689 40.8352 138.949 40.7633 139.127 40.6648C139.305 40.5663 139.394 40.4072 139.394 40.1875V39.983C139.394 39.3883 139.216 38.9205 138.86 38.5795C138.507 38.2348 138 38.0625 137.337 38.0625C136.708 38.0625 136.195 38.2008 135.797 38.4773C135.403 38.7538 135.127 39.0795 134.968 39.4545L134.007 39.108C134.204 38.6307 134.477 38.25 134.826 37.9659C135.174 37.678 135.564 37.4716 135.996 37.3466C136.428 37.2178 136.865 37.1534 137.309 37.1534C137.642 37.1534 137.988 37.197 138.348 37.2841C138.712 37.3712 139.049 37.5227 139.36 37.7386C139.67 37.9508 139.922 38.2481 140.115 38.6307C140.309 39.0095 140.405 39.4905 140.405 40.0739V46H139.394V44.6193H139.331C139.21 44.8769 139.03 45.1269 138.792 45.3693C138.553 45.6117 138.254 45.8106 137.894 45.9659C137.534 46.1212 137.112 46.1989 136.627 46.1989ZM136.763 45.2727C137.301 45.2727 137.767 45.1534 138.161 44.9148C138.555 44.6761 138.858 44.3598 139.07 43.9659C139.286 43.5682 139.394 43.1307 139.394 42.6534V41.392C139.318 41.464 139.191 41.5284 139.013 41.5852C138.839 41.642 138.636 41.6932 138.405 41.7386C138.178 41.7803 137.951 41.8163 137.723 41.8466C137.496 41.8769 137.292 41.9034 137.11 41.9261C136.617 41.9867 136.197 42.0814 135.848 42.2102C135.5 42.339 135.233 42.517 135.047 42.7443C134.862 42.9678 134.769 43.2557 134.769 43.608C134.769 44.1383 134.958 44.5492 135.337 44.8409C135.716 45.1288 136.191 45.2727 136.763 45.2727ZM144.107 34.3636V46H143.095V34.3636H144.107Z" fill="#231F20"/>
<path d="M40.4778 47.5964C44.6102 45.0122 47.7875 41.1513 49.5281 36.5987C51.2686 32.0462 51.4775 27.0503 50.1231 22.3684C48.7687 17.6864 45.9249 13.5737 42.0226 10.6535C38.1203 7.7333 33.3724 6.16493 28.4986 6.18609C23.6247 6.20725 18.8906 7.81679 15.0138 10.7707C11.1371 13.7247 8.32902 17.862 7.01533 22.5555C5.70164 27.2491 5.95392 32.2429 7.73394 36.7802C9.51396 41.3174 12.7247 45.1507 16.8794 47.6989L28.5959 28.5958L40.4778 47.5964Z" fill="#006AFF"/>
</svg>
